<svg xmlns="http://www.w3.org/2000/svg" width="1186" height="1188">
  <path fill="#f8f7f4" fill-rule="evenodd" d="M310 8.8A402.5 402.5 0 0 0 240 77c-20 17.8-61.4 97.1-77.9 149.1-3.2 10.2-3.4 29.3-.5 53.9.6 5.6 1.6 4.4-14.6 18-49.6 41.5-52.1 53.3-22.3 103.3 17.4 29.2 17.9 30.5 10 26.2a260 260 0 0 1-17.4-9.7c-3.3-2.6-4-.2-4.7 16.4-1.8 41.7-8.4 82.7-17.2 105.3l-4 11L87 563a958.2 958.2 0 0 0-23.7 73 192 192 0 0 0-4.7 76.5c2.2 12.4 7.4 29.5 8.9 29.5.5 0 14.9-23.9 15.7-26 7.5-19.9 11.5-20.8 35.6-8.4 20.6 10.6 20.6 10.6 24.6 9.4a34 34 0 0 0 12.1-6c2.2-3.5-21.7-29.8-43-47.5a277 277 0 0 1-27.3-25.1c-.7-2.9 38.7-1 49.8 2.3 12.5 3.7 26 15.3 40.4 34.8 18.4 24.7 15.6 22 23.7 23.2 7.8 1.3 9.9 1 10-1.6 0-.9.3-5.3.9-9.8 1-8.3 1-8.3-3.6-21-15.8-45.3-24.7-52.4-87.9-70.3-40.5-11.4-39.7-10.9-23-17l11.5-4c30.1-11.2 65.5-6.2 88.7 12.5 15.8 12.7 45.8 54.5 57 79.5 2 4.4 4.2 8 4.8 8 1.7 0 24.7-10 26.2-11.4 1.8-1.7-14.4-33.6-25.8-50.7-22.6-33.8-40.7-51.4-60.6-58.7a321.7 321.7 0 0 0-61.2-16.2c-39.4-7.8-38.5-7.4-27.3-13.3 26.2-13.7 57.7-13 109.1 2.2 5.6 1.7 5 1-11.5-16.4-18.8-19.7-18-17.4-10.3-25.8l6.2-6.9-8.5-8.6a146.6 146.6 0 0 1-36.3-61.6c-6.9-20.7-7.1-19.4 5.8-28.1 6-4 12.8-9 15.3-11a295.5 295.5 0 0 1 64.1-34.4c6-2.2 16.2-6 22.8-8.6 49-18.9 57.8-18.4 109.4 6.7 21 10.2 96.6 43.5 100 44 2 .4 2.3 1.3-5-21-7.4-23.3-7.5-23.2 4.4-8.5 33.8 41.9 58.4 63.4 83.4 73 5.3 2 4.7 2.5 11.7-11 5.8-11.3 6.3-13 4.7-16.9-.6-1.3-2-5.7-3.2-9.8a126 126 0 0 0-58-70.7 560.8 560.8 0 0 1-42.4-28.2c-35.4-25.4-59.5-37.1-82-40.1-73.4-9.7-132.7-4.4-177.9 16-8.3 3.7-8.3 3.6-5.5-3.2 12.4-29.3 37.7-71.9 73-122.8 10.3-15 34.4-51.1 41.2-62 5.5-8.8 8.4-11.7 5.3-5.4l-7.1 15.9A2273.3 2273.3 0 0 1 301 119l-6.7 15a1615.5 1615.5 0 0 0-35.3 84.8c0 .5 3.3 1.2 7.3 1.6a8712.3 8712.3 0 0 1 67.2 6.1c2.2.4 9.6 1.3 16.5 2 66.5 7.6 105.8 17.8 151.5 39.5 63.6 30.3 65.2 30.2 114.9-5.8 10.4-7.6 11.4-8 16.7-5.8 1.9.8 8.2 2.3 14.2 3.5a78.5 78.5 0 0 1 14 3.7l3.1 1.7 4.5-5c8.5-9.3 8.6-7.9-2.2-19.4-16.8-17.8-30.2-40.8-22.3-38.4l7.1 2 21 6c61.3 18 80.3 14.6 90.7-16.1 10.4-31.1 3.6-41.7-48.2-74.8-39.2-25-39-24.8-27-28l9-2.7c2.5-.8 8.7-2 22.5-4a192 192 0 0 1 25.3-.6c10 .3 18.2.3 18.2 0s-5-7-11.3-14.7A1606.7 1606.7 0 0 1 708 13.2c0-.8.9-1.2 16.1-7.8L735.3.5 662.4.2 589.6 0l-7 2.6a164 164 0 0 0-10.1 4c-11.1 4.8-44 17.4-44.8 17.1-1-.3 8-9.2 18-17.8L552 .5 538.6.2 525.2 0 521 4.1c-14.5 13.9-24.4 18.3-32 14.4-6-3.1-7.4-7.9-4-14.5l2-4H321.5l-11.6 8.8m523.6 233.4c-44.4 4.9-48.5 5.5-67.4 10-27.6 6.6-39.7 13.4-80.1 44.8a865 865 0 0 1-24 18c-46 32.8-55 48.9-55 98.7v18.6l4.1-.7c15.4-2.5 48.3-27.2 67.5-50.7 4.1-5 31.6-37.7 35.3-41.9 4.3-5 4-2.6-2.2 14.7-20.6 57.5-20.5 56.7-5 47.8 36.5-20.8 44-28.6 52.4-54.4 4-12.2 10-23.3 13.6-25.4 10.4-5.9 39-12.4 66.8-15.2 3.3-.4 8.4-1.1 11.4-1.8l5.3-1-.5-4.6c-2-17-3.1-23.2-7.3-43.5-2.5-11.9-3.6-14.7-5.8-14.5l-9.1 1m72 .3c-5.4 1.7-10 8.5-24.9 35.9-2.5 4.8-2.8 4.5 13.9 10.8 29.7 11 37.2 15.4 57.5 33.7 20.7 18.8 22.4 19.8 37.7 23.2a304 304 0 0 0 48 3.6c2.2-2.2-25.3-51.8-36-65.2-23.4-29-71.2-50-96.2-42M576.3 508c-25.8.6-22.8-4.3-22.4 37.2.2 26.2 0 35-.9 34.6-.6-.2-6-9.7-11.8-21-12.6-24.5-10-23.7-26.8-8.8-16.9 15-15.4 15.1-17.4-.5-2.3-17-2.5-18-4-18.2-.8-.1-3.4 2.1-5.8 5l-11.4 13.4-7 8.3v14.2c.2 15-.5 26.1-3.3 56.3-3.1 33.8-2.4 37.5 16 85.5a624.5 624.5 0 0 1 15.5 44.2c0 1.7-3.2.6-13.3-4.3-16-7.8-16-7.4.7 15.9 15.6 21.5 15.8 22.2 9.3 22.3-6 0-24.4 2.3-25.1 3-.9.8 3 31 4.7 37.4 3.6 13.1 7.8 18.2 20 24 8.2 4 25.8 10.5 28.1 10.5 1.8 0 1.7.3 5.1-19.5 2.8-16.3 4-22 8.2-39.8 4-17 4.5-14.7 4.7 20.8.4 63.8 25.6 90.3 67 70.5 28.5-13.6 31.8-26.7 26.5-105.5l-2-32a1545.4 1545.4 0 0 1-4-81.5c-2.8-110.8-4.5-131.5-13.3-165.4-2-7.7-2-7.6-9.4-7.4l-27.9.8m-315 32.7c-15.2 5.9-15.5 6.3-9.6 10.3 17.6 11.9 41.4 41.8 56.4 70.9l6.4 12.3 5-.5c7.8-.8 48.5-21.3 48.5-24.4 0-7-28-39.4-44.3-51.1-30.4-21.9-42.4-25.3-62.4-17.5m761.2-1c-43.4 9-80 37.6-108.5 84.8-5.7 9.6-7.8 14.2-21.2 46.5l-6 14.4 2.2 1.5c1.3.9 7.7 3.7 14.3 6.4 13.3 5.4 13.3 5.4 15.6-1.8 21-63.4 61.3-111 103.6-122.4 33-9 32-7.8 18.5-20.4-10.8-10-11.8-10.4-18.5-9m14.3 60.7c-31.8 14.3-47.1 28.3-61.8 56.1-5 9.4-5 9.2.3 17.9 2.3 3.9 5.1 8.8 6.2 11 1.1 2 3.2 5.2 4.8 7l2.7 3.1 1.8-2.3c21.6-28.7 34.6-40.9 59.5-55.7 5.8-3.5 7.7-5.2 7.7-6.8 0-3.5-9.4-34.7-10.5-34.7-.5 0-5.4 2-10.7 4.4M292.1 879.7c-1.3.9-5.8 3-10 4.8-9.4 3.9-10 .8 7.1 40.5 16 37 16.6 35-6.3 21.1a198 198 0 0 0-18.8-10.6c-.4.5 4.7 15.4 6 17a783.1 783.1 0 0 1 20.3 62.5l3.5 12.5c3 10.3 6.2 21.6 7 25a395.4 395.4 0 0 0 8.1 27.5c3 10.3 12.8 39.8 14.5 43.5.8 1.7 3 6.8 4.8 11.5 4.3 10.4 4.4 10.1 5-13.3.6-23.2-.2-22.3 12-13 8 6.2 8 6.2 9.3-12.3 6.1-85.4 3.9-159.3-5.4-178.2-8.7-18-48.4-44.7-57.1-38.5m119 103c-.6 4.3-1.5 37.7-2.1 74.3l-1.8 98.8-.7 32.2h49l2.3-6.8c3.9-11.1 8-27 10.7-40.7a517 517 0 0 0 5-27.5c.9-6.3 6.4-33.7 7.7-38.2 1.8-6 2.8-3.3 2.8 7.5 0 5.6.4 21.9 1 36.2a6029 6029 0 0 1 1.6 47.8l.6 21.7h43c23.5 0 42.8-.3 42.8-.8 0-.8-5.1-27.5-9.4-49.4-10.5-53-13.6-87-11.3-123.7.3-4.4-1.4-4.9-32.3-9.6a397 397 0 0 1-18-3l-15-2.6a255 255 0 0 1-74.5-23.9 68 68 0 0 0-1.4 7.8m315.8 31.6c-.2.2-5.1 1.1-10.8 2-13.3 2-12.8 1.4-10.2 13.8 3.9 19 4.3 27 3.6 72.8-.7 45.6 0 58.5 4 73 .8 3 1.8 7 2.1 8.8l.7 3.2h30.4l.2-32.3c.4-66-3.6-102.8-14.6-135.7-1.6-4.8-3.8-7.1-5.4-5.6m-79.3 25.9c-3.6 5.7-12.7 37.4-26.6 92.7a1927.7 1927.7 0 0 1-14 53.8c0 1 10.3 1.2 43.3 1.2h43.2l-1.2-27.3c-2.2-52.5-6.6-119.7-7.9-121.8-1.4-2.3-35.3-1-36.8 1.3m141 134c-1.6 2.3-2 7.5-1 11.5.6 2.1 1.2 2.3 8 2.3h7.4v-3c0-9.1-10.2-16.8-14.4-10.8"/>
  <path fill="#b7272a" fill-rule="evenodd" d="M549 4.6c-23 19.7-23.1 19.4 1.6 9.6l27.9-11 8-3-16-.1-16.1-.1-5.5 4.6M910 39.3c0 .1 3.5 3.6 7.8 7.7l7.7 7.5-7.5-7.8c-7-7.1-8-8.2-8-7.4M320 360.9c-35.5 6-59.7 51.5-46.1 86.6 24.3 62.8 100 66.7 130 6.6C428.3 405.6 379.1 351 320 361m507.3 2.1c-38.5 10-64.3 46.4-55.8 79a69 69 0 0 0 136.2-20.5c-1.7-45.4-35.6-70-80.4-58.5m7.2 33c-20.8 5.3-28.7 28.9-16 47.6 14.5 21.7 52.4 11 52.5-14.8 0-17.1-21.7-36.7-36.5-32.9m-506 2a34 34 0 0 0-15.6 41.3c6.9 20.8 46 20.3 54-.7 10.3-26.6-14.5-52.8-38.4-40.6m123 10.1c4.4 4.4 8.2 8 8.5 8 .2 0-3.1-3.6-7.5-8s-8.2-8-8.5-8a94 94 0 0 0 7.5 8m260.9 46.5c0 6 .1 8.4.3 5.2.2-3.2.2-8.1 0-11-.2-2.9-.3-.3-.3 5.8m-125.1 38.2c2.6.2 6.7.2 9 0s.2-.3-4.8-.3-6.8.1-4.2.3m379.7 5.4c-33.6 8.6-83.2 23.8-84.5 26-1.5 2.2 31.3.2 46-3 16.3-3.5 29.5-9.2 44.2-18.8 12.4-8.2 11.7-8.7-5.7-4.2m-830 18.6c-10.5 1.8-33 10.2-33 12.4 0 1.1.9 1.3 29 7 80 15.9 100.4 29.8 137.1 94.1l4.4 7.7 4-.4c5.1-.5 31-1.7 35-1.6 2.4 0 2.7-.1 1.3-1-.9-.5-4.6-6.6-8.3-13.7a211.1 211.1 0 0 0-87.7-91c-15.7-9-62.8-16.7-81.8-13.5m874 .3c-45.2 5.3-88.4 33.8-118.2 77.8-13.4 19.8-18.8 29.6-16.7 30.4a254 254 0 0 1 26.8 16c.1.5 2-2.5 4.2-6.7C936 577.3 994.2 534 1036.8 538c14.4 1.3 38.6 6.8 52.1 11.9 6.8 2.4 6.6 3.5 1.5-10a36.1 36.1 0 0 0-4.3-9.9c0 1.4-2 1-11.8-2.7-24.9-9.3-44.8-12.5-63.3-10.4m-381.6 11c0 5.2.1 7.4.3 4.8.2-2.7.2-7 0-9.5-.2-2.7-.3-.5-.3 4.7m-1.2 27.7c-.2 6.6.7 8.4 3 5.5 1.2-1.5 1.1-1.6-.4-.4-1.6 1.2-1.7.8-2-5l-.4-6.3-.2 6.2m-497.2 15c-12.4 1.8-41 10.4-44.4 13.4-.9.8 7 3.3 37.9 12.3 58.5 16.9 69 26 84.6 73.9 1.2 3.7 2.6 6.7 3 6.7 1.2 0 4.9-2 7.4-4.1 5.8-4.7 25-16 26.3-15.4 1.3.5 1.3.2-.1-1.7l-7.3-11.8c-35-58.2-66-79.4-107.4-73.4m884.5 1.5c-26.4 9.1-47.6 29.1-69.2 65.2a6879 6879 0 0 1-10.5 17.5c-1.7 2.7-1.7 3.1-.3 2.6a150 150 0 0 1 30.7 13.3c1.4 1.3 1.7 1.1 2.3-1.9 5.2-23.8 32-52.5 63.1-67.6l11.9-5.7 9 .2c14.3.3 52.8 8 60.6 12.3 1.3.7 1-1-1.3-8.3-5.3-16.5-5-16-8.3-16.4l-7.5-1.3c-26.6-5.8-75.1-11.8-80.5-9.9m34.8 66.8a177.9 177.9 0 0 0-56.9 52.6l-5 7 13 .1c7.2.1 15.7.6 18.8 1.1 5.4 1 5.7.9 7.6-1.6 5.9-8 30.1-26.7 67.6-52.3 2.1-1.4-1.3-3-16.5-7.4-19-5.4-18.6-5.5-28.6.5m-963 .3c-.1.3 7.7 7.5 17.4 16a383.5 383.5 0 0 1 44.4 42.7l5.3 6.7 15-5.8a188 188 0 0 1 16.3-5.8c1.2 0-4.1-7.9-14.2-21-13.2-17.2-25.3-26.8-39-30.7-5.3-1.6-44.3-3.4-45.1-2.1m763.3 55.3c-.4 7.1-.7 32.7-.7 56.8 0 24-.3 43.7-.8 43.7-.4 0-7.5-3.6-15.7-8.1-44.2-23.8-56.5-28-77.2-26.5-15.5 1.1-15.4.9-7.8 19 6.7 16 6.6 14.7.3 17.7-3 1.3-5.8 3-6.3 3.5-3 3.6-15.6 7.6-17.8 5.8-1.2-1-1.6-1.2-1-.4 6.3 7-35.6 67.6-53 76.6-3.2 1.7-3.5 2.4-.6 1.7 1.7-.5.6 1.6-5 10.1-8.7 13-9.3 12.3 8.2 10.7 56.9-4.9 102.5-18.5 132.5-39.7 8.3-5.8 9.5-8 3.8-7-7.7 1.4-41.5 5.6-45.5 5.6h-4.4l2.4-2.6c12.1-13 35.4-22 65.9-25.4 5.2-.6 12.6-1.5 16.3-2.1 8.7-1.4 9-1 7.3 7.7a476 476 0 0 0-3 15.4c-5.6 29.6-13.6 46-27.3 56.2a200 200 0 0 1-28 16.8c-2.3 0-1.5-2 8.2-20.7 5.3-10 9.3-18.7 9-19.2a58.8 58.8 0 0 0-20.2 4.2 727 727 0 0 0-15.9 66.2c-1.6 9.2-1.8 49.1-.6 112 .8 39 .9 39.7 1.1 16.5.3-27 .5-27 4.6-.5 3 19.3 3.2 20.2 3.6 11A529 529 0 0 1 797.6 962c4.6-15.9 4.2-15.2 12-18 17-6 34.8-18.3 58.7-40.6 42.2-39.5 42-39.3 45.7-39.5l3.5-.2-3.5-.4c-7.5-.9-48.3-14.8-49.1-16.8-.3-.6 9-1.2 26.1-1.5 14.6-.3 26-.7 25.4-.8-2.6-.5-14.7-21-19.8-33.3-10-24.5-14-47.4-15.3-90.6a146 146 0 0 0-1.4-21.3c-.5 0-4.3-2-8.6-4.6-4.3-2.5-10.3-5.9-13.5-7.5a18.5 18.5 0 0 1-6-4.1c-.3-.7-.8 4.6-1.1 11.7m-525.2 1.2c-16 3.8-18.6 4.3-21 4.3-2 0-2.5.5-2.5 2.8a30 30 0 0 1-1 6.2c-.5 2-1.4 9.1-2 16-6.3 71.4-8.4 80.3-21.9 94.3-9.2 9.5-37 31.2-41.1 32l-2.5.4 2.5.1c3 .2 10.1-.9 41.5-6.3l16.5-2.7c6.8-1 7.8-1.4 5.2-1.8l-3.4-.5 5.3-7c2.8-3.9 6.3-8.2 7.7-9.8 1.4-1.5 2.7-3.3 2.8-4 .2-1.4 16.2-26.8 17.8-28.2.6-.5 1.1-3.3 1.2-6 0-2.8.6-10.6 1.4-17.5 1.5-14.3 1.9-71.5.4-73-.5-.4-3.6-.1-6.9.7m-234.8 9.8c-5.6 8.9-5.7 10.3-1.4 14.8 4.5 4.8 26.4 8.5 31.5 5.3.7-.4 5-2 9.4-3.5l8.2-2.7-9.5-5.1A463 463 0 0 0 96.3 698c-.5 0-3 3.4-5.5 7.5m991.7-2.4a212.6 212.6 0 0 0-27.4 4.8c0 .3 3.4 3.5 7.5 7 4 3.6 7.4 7 7.4 7.8 0 .7.6 1.3 1.3 1.3.7 0 3 1.8 5.2 4l3.9 4 .6 24.7.6 24.8 3.2-6.8a127 127 0 0 0 11.2-55.4c0-19.2.8-18.2-13.5-16.2m-169.7 21.4-1.6 15.5c-6 55.9-4.7 59.9 24.8 73.7l13.7 6.5c3.5 1.7 3.7.6 2.3-10l-2.6-20.2a468.5 468.5 0 0 1-4.2-56.7c.2-8.8 0-11-1-10-2 1.6-30-1.3-30.5-3.2-.2-.9-.6 1.1-1 4.4m-680 .2 1.5 12.3c3.5 25.1 1.7 51-4.3 60.6-5.6 9.1-41.8 33.1-58.6 39-3.6 1.1-5.6.5 33.1 10 3.2.8 6.1 1.2 6.4 1 .3-.4 0-.6-.6-.6-2.5 0-.8-1.7 7.4-7.5 46.3-32.5 54.3-42.2 55.2-66.5.4-13 0-19-3.3-40.5L268 722c0-.3-7.5-.4-16.6-.2-10.7.2-17 0-17.9-.8-1-.8-1.2 0-.8 3.7m745.3 19c-5.4 28.5 1 56 14 60 13.7 4.3 57 7.5 55.7 4a495 495 0 0 0-36.9-48.4 19 19 0 0 1-3.8-5.8c0-1-.4-1.3-1-1a99.7 99.7 0 0 1-25.9-14.8c-.4-1.2-1.2 1-2.1 6m-804.3-.8c.2.9-.8 6.1-2.3 11.6-1.4 5.5-3.3 12.7-4 16-2.4 9.3-1.2 8.5-28.4 17.4-29 9.5-28.1 8.7-14.3 13.5 46.6 16.2 63.5 9.2 83.2-34.6 2.1-4.8 3-11.8 1.1-8.8-1 1.5-23.7-8.7-32.5-14.6-2.7-1.8-3.2-2-2.8-.5m-85 4.9c-4.5 5-4.3 10.7.6 14.8 8.8 7.4 19-5.6 11.1-14-2.8-3.2-9.2-3.6-11.7-.8M462.4 811c0 5.2.1 7.4.3 4.8.2-2.7.2-7 0-9.5-.2-2.7-.3-.5-.3 4.7m-62.1-6.3c6 .2 15.4.2 21 0 5.6-.1.8-.3-10.8-.3-11.6 0-16.1.2-10.2.3m-68 33c3.7.2 9.6.2 13 0 3.4-.2.3-.3-6.8-.3s-10 .1-6.2.3m605.5 9c2.9.2 7.4.2 10 0 2.6-.2.2-.3-5.3-.3s-7.6.1-4.7.3M395.4 850c-1.5 1.5-30.7 5.5-50.7 7-6.5.4-12 1-12.2 1.1-1.7 1.8 22.3 44 27.3 48 .9.8.5-.2-1-2.1-5.7-7.9-4.8-7.7 5.2 1a957 957 0 0 0 24.7 20.3c1.2.9 13.2-7 16.2-10.7.9-1-2.6-5.5-15.9-20.7-16.6-19-18.8-21.9-15.3-20.4a790.4 790.4 0 0 0 42.3 14c12.6 3.8 20.3 5.6 43 10 18.6 3.5 24.3 4.4 33 5.5l19 2.4c14 1.8 14 1.8 14 .7 0-.5-3.1-5.7-7-11.5a55 55 0 0 1-6.2-10.7h1.7c2.6.5-1.7-2.1-10-6.2-15.6-7.6-29.1-11.6-64.5-18.7a424 424 0 0 1-41-9.4c-.9-.4-2-.2-2.6.4m531.8 14.7c2.1.2 5.5.2 7.5 0 2.1-.2.4-.4-3.7-.4-4.1 0-5.8.2-3.8.4m-512.8 41.7c-.3.8 0 8.6.5 17.2l1.1 17.9c0 1.5 1.1 2.6 4.3 4a901.4 901.4 0 0 1 31.2 14.5 160 160 0 0 0 35 7.6c2.9.3 2.9.3.5-.6-4-1.5 48.1.7 71.5 3a559 559 0 0 0 66 0l20.5-2a557.2 557.2 0 0 0 75.5-11.3 438.7 438.7 0 0 0 45.2-11.8c2.1-1.8 1.9-33.7-.3-34.6-1.7-.6-30.6 1.1-44.4 2.7l-18 2c-22.6 2.5-35.2 4-45.5 5.5-51.2 7.3-70.6 8-111 3.5-21.6-2.4-33.7-4.2-83.5-12.5-33.4-5.6-47.8-7.1-48.6-5m-15 113.5c0 4.7.1 6.6.3 4.3.2-2.4.2-6.2 0-8.5-.2-2.4-.4-.5-.4 4.2m8 7c0 5.2.2 7.4.4 4.8.2-2.7.2-7 0-9.5-.2-2.7-.3-.5-.3 4.7m-9 46.5c0 4.4.1 6 .3 3.7.2-2.3.2-6 0-8s-.4-.1-.4 4.3m8.1 37.5c0 17.9.2 25.2.3 16.3.2-9 .2-23.6 0-32.5-.1-9-.3-1.7-.3 16.2m-9-12c0 3.6.1 5 .3 3.3.2-1.8.2-4.8 0-6.5-.2-1.8-.4-.4-.4 3.2m376.1 44c0 9 .2 12.8.3 8.3.2-4.6.2-12 0-16.5-.1-4.6-.3-.9-.3 8.2"/>
  <path fill="#050505" fill-rule="evenodd" d="M0 594v594h292l-.5-2.8-1.6-8.7c-7.8-41.8-7.6-46.3 1-29.5l10.6 20.2c4.1 8 5.9 9.4 7 5.6a69 69 0 0 1 9.6-18c.4.3 3.7 7.9 7.2 16.7l6.4 16 18.5.3 18.5.2 3.4-5.7c9.2-15.6 23.7-16 23.2-.8l-.2 6.6 4.7-.3 4.7-.3.6-8.5c.4-4.7 1-41.1 1.3-81 .8-89.6 2-117.1 6-132.7l1.2-4.8 6.2-.3c3.4-.2 12.8.4 20.9 1.2 8 .9 14.9 1.4 15.1 1.1a66 66 0 0 0-13.1-6.5c-.4 0-22.1-10.3-26.3-12.4-1-.5-2.4-37-1.5-37.9 1.3-1.3 21.3 1.3 67.1 9 87.2 14.5 109.7 15.2 175.5 5.8 10.3-1.5 23-3 45.5-5.5l18-2c13.8-1.6 42.7-3.3 44.4-2.7 2.2.9 2.4 32.8.3 34.6A584.6 584.6 0 0 1 645 968l-20.5 2a559 559 0 0 1-66 0c-10.8-1-43.9-3-62.5-3.6-12.8-.4-12.1 0 5 4 7.3 1.7 9.6 2.4 22.5 6.1 10.4 3 31.5 10 47.8 15.9 20 7.1 24.8 7.2 43.4.3a339 339 0 0 1 65.8-19.5l12.5-2.3a590 590 0 0 1 57-5c25.4-1.2 23.7-.8 24.5-5.6a709.2 709.2 0 0 1 15.8-66 58.8 58.8 0 0 1 20.2-4.2c.3.5-3.7 9.1-9 19.2-9.7 18.8-10.5 20.7-8.3 20.7a200 200 0 0 0 28-16.8C835 903 843 886.6 848.6 857l3-15.4c1.9-8.7 1.5-9.1-7.2-7.7-3.7.6-11 1.5-16.3 2-30.5 3.4-53.8 12.4-66 25.5l-2.3 2.6h4.4c4 0 37.8-4.2 45.5-5.6 5.7-1 4.5 1.2-3.8 7-30 21.2-75.6 34.8-132.5 39.7-17.5 1.5-17 2.3-8.4-10.5s8.6-12.8-10-1.6c-57.8 34.9-73.5 35.1-123.8 2.2-21.8-14.2-22-14.3-13-.6a98 98 0 0 1 6.9 11.5c0 1.1 0 1.1-14-.7l-19-2.4c-8.7-1-14.4-2-33-5.6a362.6 362.6 0 0 1-52.5-12.6c-4-1.1-29.3-9.8-32.8-11.3-3.5-1.5-1.3 1.5 15.3 20.4 13.3 15.2 16.8 19.7 15.9 20.7-3 3.7-15 11.6-16.2 10.7A940.3 940.3 0 0 1 364 905c-8.1-7-9.6-8-8.1-5.2 3 5.6 15 19.2 29 32.9l15.4 15.2-.7 62.6c-1.4 128.6-3 144-17 152.8-14.3 9-23.8 6.8-43.5-10.6-11.9-10.5-21-33.7-40.1-101.7-15-53-24.1-82.3-31.8-101.5a5582 5582 0 0 1-28.3-74.8c-4-11-4-11.2 2.8-12.5 19.3-3.8 29.3-4.5 67.3-4.8a429.8 429.8 0 0 0 81.7-6c6.8-1 5.9-1.8-6-5.7a106 106 0 0 0-46.2-7.1c-21.6 0-21.4-.1-55 5.9a865 865 0 0 1-23.5 4c-18.4 3-22.5 3.5-27 3-39-5.2-85.4-18.6-107.9-31.2C97.5 805 86.7 791.5 68.6 750A144 144 0 0 1 57 710c-5-27.1 1.9-72 18.2-118a4996 4996 0 0 0 14.3-40c2-5.8 4-11.4 4.6-12.5 1.3-3 3.5-10.2 5.7-18.5 4.3-16.6 5-20.1 7.2-38.5l2-15c.6-3.3 1.5-15 2-26 1.6-29.5 1-28.3 9.4-23.6 20.3 11.4 19.4 12 8.8-5.9-35.6-60.6-34.6-71.3 10.3-109.5 6.5-5.5 14-12 16.8-14.6l5-4.6-1.3-6.9c-4.5-23.5-1.9-45.4 8.8-73.9 31-82.3 78.5-148.6 139.5-194.4L319.2 0H0v594M487 3.4c-10 16.5 9.9 19.8 27.6 4.6 9.5-8.3 9.8-8-9-8h-16.3L487 3.4m371.3-2 12 7.5c60.1 38.1 108 101.2 141 186.1 4 10.2 7 19.2 11.6 35 7 23.9 6.6 22.5 8.5 31.5 5.8 27 7.2 30 26.9 56.2 28.6 38 27.8 46.2-8.5 95-13.5 18.1-13.7 17.8 4.7 8.3 9.2-4.9 13.6-6.7 13.9-5.8.2.7.9 6 1.5 11.8l2.5 24.5c5 48.6 8 62 22.5 100.5a705.7 705.7 0 0 1 16.8 48c2.8 9 4 13.7 7.7 29.5a294.6 294.6 0 0 1 8.6 52.5c5.3 45.3-29.8 115.2-68.2 135.9A254.4 254.4 0 0 1 925.1 846c-62.5-4-69.9-.7-28.3 12.6a82.7 82.7 0 0 0 29.3 5.3c18.3 1 17.6.3 13.3 12.6l-7.9 22.5a3170 3170 0 0 0-38 112.5A1581.8 1581.8 0 0 0 882 1053l-4.5 17c-13.3 51.2-21.2 71-33.4 83-21 21-49.5 16.5-55.5-8.5-1.4-6-1.7-8.2-5.6-33.5-3-20-5.1-32.7-6.4-39.8-1-5.4-1.4 1.8-2.5 52l-1.4 61.3-.2 3 6.7.3 6.8.3-.6-5.8c-.8-7.5 1.7-11.3 7.5-11.3 6.3 0 10.6 5 11.3 13.5l.3 3 190.8.3 190.7.2V0h-164.8C893.5.2 857 .5 858.5 1.4M529.2 320c.2.5 4.2 4.3 9 8.5 22.4 19.6 36 46.4 40.2 79.6 3.2 25.3 3.2 23.8.5 24.9a848 848 0 0 1-62.9 12.6l-11.7 2c-3.3.5-7.2 2.5-5 2.5 5.5 0 63.7 12.9 84.2 18.6 32.4 9.1 19.4 8.6-47.1-1.7-9-1.4-9.3-1.3-8.2 5.8 2.3 15 4 26.7 5.3 36.3 2.6 18.4 1.2 18 15 4.3 21.8-21.6 33.5-24.7 69-18l12 2.2-.3 32.5c-.3 36.6-.4 36.5 6.4 21 7.6-17.5 14.4-24 25.2-24 6.6 0 6.4.5 4.7-16.1l-2-19.6c-.8-7.7.4-6.8 10 8 15.4 23.4 43.7 56.9 47.2 55.6 4-1.5-14.6-51.7-33.5-89.9l-8.7-17.5-5.5-1.2c-8.6-2-24.8-4.8-46-8.4-24.5-4-22-1.3-22-24.3 0-41.8 6.3-59.1 28.3-77.3 12.7-10.5 12.7-10.5-2.4-5.2l-26 8.9-14.6 4.9-23.3-10-30.7-13c-4-1.7-7.2-2.7-7-2.2M240 338c-8 1-31.5 12.8-55.8 28.2-3.1 2-3 2.5 4.4 17.8 3.7 7.5 8.1 17 9.9 21.1 28.1 65.3 45.4 82.2 104.4 102 96.9 32.5 160.7 16.2 169.7-43.4 5.6-37-30.3-76.2-99.8-109-14-6.7-24.4-10-42.8-13.5a492.5 492.5 0 0 0-90-3.2m645.5 1.1c-71.5 4.4-162.7 55-171 94.8-15.7 75.9 44.2 108.1 148 79.7 53.6-14.7 69-24.6 100.2-64.5l12.1-15.5 12.9-3.4c21.4-5.7 21.4-5.7 27.1-17 5-9.9 13.7-31 13-31.5a669.8 669.8 0 0 0-43.3-23.8c-27-13-62.4-21.3-85-19.6l-14 .8M320 361c-35.5 6-59.7 51.5-46.1 86.6 24.3 62.8 100 66.7 130 6.6C428.3 405.6 379.1 351 320 361m507.3 2.1c-38.5 10-64.3 46.4-55.8 79a69 69 0 0 0 136.2-20.5c-1.7-45.4-35.6-70-80.4-58.5m7.2 33c-20.8 5.3-28.7 28.9-16 47.6 14.5 21.7 52.4 11 52.5-14.8 0-17.1-21.7-36.7-36.5-32.9m-506 2a34 34 0 0 0-15.6 41.3c6.9 20.8 46 20.3 54-.7 10.3-26.6-14.5-52.8-38.4-40.6m542.6 233.9a316.4 316.4 0 0 0-18.6 48.9c-.6 3.1-.5 3.3 5.2 6.1 3.2 1.7 9.3 5 13.6 7.6 9.8 5.8 9.2 6 12-3.1 2.8-8.6 11.7-31 16.6-41.5 4.2-9 4.7-8.4-10.3-17-16-9.4-14.4-9.3-18.5-1M305.5 636c-3.3.4-11 .7-17 .8-14.4.2-14.3 0-9.9 9.2a854 854 0 0 1 23.1 52.6c.7 1.7 4.1 1.6 11.2 0l11.6-2.7c3.3-.7 6.3-1.6 6.8-2 .7-.6-3.3-24.2-7.3-42l-2.7-12.7c-.6-3.6-4.4-4.4-15.8-3.2m-73.4 28.4c-16 10.4-15 8-9.8 23.6 2.4 7.4 5.7 17.4 7.2 22.4a64 64 0 0 0 3.7 10.3 148 148 0 0 0 33.8.6 435 435 0 0 0-8.5-34.4c-3-11-11.7-30-13.7-30-.7.1-6.4 3.5-12.7 7.5m700.3-2.3c-5.2 10.2-15.3 38-16.8 46.2-2.7 14.3-4 13 13 14.5 17.5 1.6 15.4 3 22.7-14.9 3-7.4 7.8-18.6 10.6-24.9 6.2-13.5 7.2-11.7-10.8-20-16.2-7.4-15.4-7.3-18.7-.9m-762.9 36.5c-7.7 3-14.1 5.6-14.3 5.8-.4.4 17.7 35.6 19.4 37.5 1.8 2.1 33.2 17.6 34 16.7 1.7-1.7-15.8-57.4-19.7-62.7-2.9-3.8-2.8-3.8-19.4 2.7m819 .5c-.8 2.7-6.4 26.6-7.6 32.5-.8 4-1 6.6-.4 7.2 2.6 2.5 24.8 14.2 25.5 13.5.4-.5 2.9-7 5.4-14.4l6-17a139 139 0 0 0 7.5-20.4c-2.2-2-35.7-3.3-36.4-1.4m57.2 20c-17.1 22.7-18.8 35.4-5 39.4 14.6 4.2 21-1.9 27-26l2.7-10.8-6.4-5.9c-10-9.2-8.6-9.4-18.3 3.4m-917.2 3.3a36 36 0 0 0-8.2 3.7c-1.2 1.3-2.3 29-1.2 30.2.8.8 16.2 2.5 22.7 2.5 5.9 0 5.6 1 3.2-9.5-1-4.1-2.4-11.2-4.3-22.5-1.4-7.8-2-8-12.2-4.4m309 40c-16 2.2-42.6 8.6-70 17.1l-28.3 8.8-10.3 3.1-8.8 14c-9.6 15-9.9 15.7-4.9 12.6 19.9-12.3 30.5-14 85.8-14.3l42.4-.2 8.8 13.2A98.4 98.4 0 0 0 462 830c.8 0 .4-42.1-.5-44.9-.5-1.4-13-.9-20.9.9-5.4 1.2-5.3-.4 1-11.9 7.1-13.2 7.2-12.9-4-11.4M719 781.9c-4.8 4.8-2 17 5.5 24l2.4 2.3 7.4-3.2c9.5-4.2 9.4-4 7.3-9.6-4.8-12.5-16.5-19.5-22.6-13.5"/>
  <path fill="#a5a4a4" fill-rule="evenodd" d="M309.9 7.3c-60 45.1-106.7 108.4-137.4 186a28 28 0 0 0-2.3 7.3 52 52 0 0 0 4.8-10.4c15.9-39.3 51.2-101 65-113.2l6.5-8c14-17.6 41.2-43.5 62.5-59.5C321.5.1 321.7 0 320.4 0a79 79 0 0 0-10.5 7.3M485 4c-7.4 14.5 9.5 21.3 24.6 9.8A94.3 94.3 0 0 0 524 .7c0-.5-3.2 2-7 5.6-19 17.2-41 15-30-3 1-1.8 1.5-3.3 1-3.3s-1.9 1.8-3 4m61 1.6c-10.7 9.3-19.3 17.8-18.3 18.1.6.2 10-3.2 20.9-7.5l21.8-8.6c1-.3 1.6-.9 1.3-1.2-.3-.3-9.6 3.1-20.7 7.6-21.7 8.6-22.8 8.9-17.8 4.4 2.7-2.3 19-16.7 20.7-18 .2-.2 0-.4-.5-.4s-3.8 2.5-7.4 5.6m177.5 0c-6.6 3-12.8 5.8-13.8 6-3 1 4.2 10.9 42 58C757.9 77.4 763 84 763 84.3c0 .3-8.2.3-18.3 0a192 192 0 0 0-25.2.5 189.4 189.4 0 0 0-31.5 6.8c-12 3.2-12.2 3 27 28 51.8 33 58.6 43.7 48.2 74.8-9.4 27.7-27.2 32.9-73.2 21.2l-17.5-5.1a1332.6 1332.6 0 0 0-28.1-8c-7.9-2.4 5.5 20.6 22.3 38.4 10.8 11.5 10.7 10.1 2.2 19.5l-4.5 4.9-3.2-1.7c-1.7-.9-8-2.6-14-3.7-5.9-1.2-12.2-2.7-14-3.5-5.4-2.2-6.4-1.8-16.8 5.8-49.7 36-51.3 36-114.9 5.8a353.4 353.4 0 0 0-66-24.5 579 579 0 0 0-85.5-15c-6.9-.7-14.3-1.6-16.5-2a3983.7 3983.7 0 0 1-67.3-6.2c-4-.3-7.2-1-7.2-1.5a1615.5 1615.5 0 0 1 42-99.8 2670.2 2670.2 0 0 1 16.5-37.5l7-16c3.2-6.2.3-3.3-5.2 5.5-6.8 10.9-30.9 47-41.2 62-35.3 50.9-60.6 93.5-73 122.8-2.8 6.8-2.8 6.9 5.5 3.1 45.2-20.3 104.5-25.6 177.9-16 22.5 3 46.6 14.8 82 40.2a588.7 588.7 0 0 0 42.4 28.2 126 126 0 0 1 58 70.7c1.2 4.1 2.6 8.5 3.2 9.8 1.6 3.9 1 5.6-4.7 16.8-7 13.6-6.4 13-11.7 11-25-9.5-49.6-31-83.4-72.9-11.9-14.7-11.8-14.8-4.3 8.5 7.2 22.3 7 21.4 5 21-3.5-.5-79-33.8-100.1-44-48.1-23.4-52.1-24-87.4-14.1-5.5 1.5-15.4 4.9-22 7.4a1491 1491 0 0 1-22.8 8.6c-19.5 7-52.2 24.6-64.1 34.4-2.5 2-9.4 7-15.3 11-13 8.7-12.7 7.4-5.8 28.1a146.6 146.6 0 0 0 36.3 61.6l8.5 8.6-6.2 6.9c-7.6 8.4-8.5 6.1 10.3 25.8 16.6 17.4 17.1 18.1 11.5 16.4-51.4-15.2-83-15.9-109.2-2.2-11.1 5.9-12 5.5 27.4 13.3 32.6 6.5 40.9 8.7 61.2 16.2 19.9 7.3 38 24.9 60.6 58.7 11.4 17 27.6 49 25.8 50.7a203.4 203.4 0 0 1-26.2 11.4c-.6 0-2.8-3.6-4.8-8-11.2-25-41.2-66.8-57-79.5-23.2-18.7-58.6-23.7-88.7-12.6l-11.5 4.2c-16.7 6-17.5 5.5 23 17 63.2 17.8 72 24.9 88 70.2 4.4 12.7 4.4 12.7 3.5 21-.6 4.5-1 9-1 9.8 0 2.5-2 2.9-9.9 1.6-8-1.2-5.3 1.5-23.7-23.2-14.4-19.5-27.9-31-40.4-34.8-11-3.4-50.5-5.2-49.8-2.3.3 1.3 15.4 15.2 27.3 25.1 21.3 17.7 45.2 44 43 47.5-.9 1.4-7 4.5-12 6-4.1 1.2-4.1 1.2-24.7-9.4-24.1-12.4-28.1-11.5-35.6 8.4-.3.8-4 7-8 13.9-9 15-9.6 14.7-14.3-7-.7-3-1.4-4.9-1.6-4.2-3.3 9.4 25.3 68.1 40.5 83.1C113 815 156.5 837 169 837c5.3 0 41.1-20.8 52-30.1 15.7-13.5 20.2-54.5 9.9-90.4-8-28-13.6-42.2-16-40.7-3.2 2-3.6 1.5-6-5.5-15.5-47.8-26-57-84.5-74-30.9-8.9-38.8-11.4-37.9-12.2 1-.9 15.6-6.3 22.9-8.6 58.4-17.9 100.8 9.2 141 90 6 11.9 6.8 14.5 12 35.3 6.5 26.2 6.4 25.6 9.6 50.2 5.2 40-2 51.6-54.5 88.5a59 59 0 0 0-8.6 6.7c0 1.2 10.7 3.3 23.2 4.5l5.7.5 15.3-11.5c37.5-28.2 38.3-30.2 45.8-114.7.6-6.9 1.5-14 2-16 1.7-6.2 1.1-8.4-8-29.6-19-44.6-30.5-65.1-50.6-90-26-32.4-41.5-39.9-109.3-53.4-34.5-6.8-32.8-6-21.3-11.3a105.7 105.7 0 0 1 61-7.3c16.9 2.9 39.9 9.2 46.1 12.7 39.3 22.3 66 50 87.7 91.2 6.6 12.6 8.9 15.3 12 14.1 2.3-1 2.8.8 8 26.6 2.7 13.2 4.6 23.7 5.7 30 1.5 9.6 1.4 61-.2 76-2 17.3-2 22.6 0 22.2l11-3.4 24-7.5c33.8-10.6 77.6-20.1 80.3-17.4.5.5-1.7 5.6-5.3 12.1-7.1 13.2-7.3 12.4 2.6 11l12.5-1.7 4.6-.5.6 14.3c1.8 38.3 1.8 38.4-9.8 21-10.7-16.2-9.4-15.2-18.5-14-4.9.8-18 1-37.1.5-56.5-1.3-77.6 4.8-94.5 27.2-7.8 10.3-8.4 10 12 7.3 27.8-3.7 45.2-2.1 73 6.9 20.6 6.6 22.5 7.1 51.6 13 49 9.9 59.1 13.8 91 35 51.7 34.3 68 33.8 129.7-4.5 32.5-20 71.9-73.2 63-85-9.7-12.5-8.8-25.5 1.6-25.5 5.7 0 17.6 11 17.7 16.4 0 3.6 1.8 4 7 1.6 6.1-2.9 6.1-1.6-.5-17.5-7.6-18.2-7.7-18 7.8-19.1 20.7-1.5 33 2.7 77.2 26.5a284 284 0 0 0 15.6 8.1c.4 0 .9-25 1.1-55.8l.5-55.7 4-12c40.6-121 128-178.3 219.5-144.1 6.9 2.5 11.8 3.9 11.8 3.2 0-.6-.9-4.3-2-8.1a335.6 335.6 0 0 1-11-63 405 405 0 0 0-2-18 265 265 0 0 1-1.5-15c-1-13-.2-12.8-15.9-4.6-18.6 9.7-18.4 10-3.8-9.8 36.5-49.2 37-56 8-94.7-17.2-22.6-20.6-29-24.2-45A504.5 504.5 0 0 0 989.8 147c-34.1-65-75-111-126-141.7L855.2 0h-59.8l-59.8.2-12 5.4m-555 197.5-3.4 9.9c-3 8.6-5 16-3.8 14.9.3-.3 1.2-2.8 2-5.5a212 212 0 0 1 4-12.3c1.5-4 2.5-7.6 2.2-7.9-.3-.3-.7.1-1 1m-9.3 29.4c-1.1 5.3-.6 37.2.6 40.9 1 2.6 1 2.4.6-2a178.7 178.7 0 0 1-.5-34c1-8.3.7-11.3-.7-4.9m674.2 9.6c-44.4 4.9-48.5 5.5-67.4 10-27.6 6.6-39.7 13.4-80.1 44.8a865 865 0 0 1-24 18c-46 32.8-55 48.9-55 98.7v18.6l4.1-.7c15.4-2.5 48.3-27.2 67.5-50.7 4.1-5 31.6-37.7 35.3-41.9 4.3-5 4-2.6-2.2 14.7-20.6 57.5-20.5 56.7-5 47.8 36.5-20.8 44-28.6 52.4-54.4 4-12.2 10-23.3 13.6-25.4 10.4-5.9 39-12.4 66.8-15.2 3.3-.4 8.4-1.1 11.4-1.8l5.3-1-.5-4.6c-2-17-3.1-23.2-7.3-43.5-2.5-11.9-3.6-14.7-5.8-14.5l-9.1 1m72 .3c-5.4 1.7-10 8.5-24.9 35.9-2.5 4.8-2.8 4.5 13.9 10.8 29.7 11 37.2 15.4 57.5 33.7 20.7 18.8 22.4 19.8 37.7 23.2a304 304 0 0 0 48 3.6c2.2-2.2-25.3-51.8-36-65.2-23.4-29-71.2-50-96.2-42M161.1 281c0 3.4-1 4.4-13.8 15-20 16.5-34 30.9-38.4 39.4-3.5 6.6-6.5 16-4 12.5.6-.8 1-2.3 1-3.3.2-7.6 18.2-28 42.9-48.2 12-10 13.8-12.1 13-16.6-.4-1.7-.6-1.3-.7 1.2m368.4 40.2c26.9 21.3 44.4 51 47.5 80.2a499 499 0 0 0 2 15.5c2.3 16.4 2.5 14.8-1.8 16-6.8 1.8-32.2 6.8-55.7 11a465.9 465.9 0 0 0-23.3 4.5c-1 .9 1 2.5 3.1 2.5 1.2 0 6.5 1 11.7 2 5.2 1.2 12.9 2.7 17 3.5 35 6.5 85 20.6 64.5 18.2a1117 1117 0 0 1-37-5.2c-34.8-5.7-31.6-9.2-26 29l2.6 17.5c1.5 10.8 1.8 10.8 11.7.5 22.5-23.3 33.9-27 67.4-21.4 19 3.1 17.2-1 16 35.3-1.4 37.7-1 39.1 6.4 21.7 7.5-17.8 13.1-23.3 25-24.6 7.6-.8 7.2 1 4.8-21.5-2.2-21.6-2.2-21.6 7-7.5 15.3 23.3 44.2 57.5 48.7 57.5 6.9 0-36.6-107.7-44.3-109.5-3.8-.9-38.2-7.2-54.8-10-18.5-3.2-16-1-16.7-14.7-2.1-44.3 6.2-67.4 31.7-88.3 9.9-8 9.1-8-20.4 2l-26.3 9-13.9-6a16081.6 16081.6 0 0 0-40.4-17c-10.3-4.3-11.7-4.4-6.5-.2m-294.6 17.1a360 360 0 0 0-52.7 29c-1.1 1.1-.3 3.4 4.6 13.7a472.3 472.3 0 0 1 13.2 28.6 489 489 0 0 0 21.1 40.5c16.8 26.3 30.4 37.8 57.9 48.6 44.5 17.6 79 25.2 113.5 25.2 72.7 0 107.7-67.5 60-115.6-29-29-78.7-58.1-113-65.9-21.5-4.9-95-7.7-104.6-4m643.7.6c-69.1 6.7-154.7 55-164.2 92.9-18.9 74.8 42 109.7 144.6 83 55.4-14.5 72.8-25.6 104.7-66.6 12.4-15.8 10.7-14.6 22.3-17.4 25-6 26-7 38.4-38.2 4.8-12.1 5.7-10.7-12.5-21-53-29.8-84.1-37.4-133.3-32.7M104 356.2c-.3 8 8.4 27 24.6 54 11.5 19.3 11.5 19.1-2.7 11.2-12.5-7-13-7.1-13-5 0 1 .6 1.3 1.5 1 .8-.4 2-.2 2.8.4 1.2 1 8 4.8 17.4 9.7 7.9 4.3 7.4 3-10-26.2a166 166 0 0 1-18.6-40.5c-1.1-4.2-2-6.2-2-4.6m7.5 76.6c-1.6 25.8-1.8 30.7-1.2 30.1.8-.7 3-37.4 2.3-39.1-.2-.7-.7 3.3-1 9m-3 37.9a89 89 0 0 0-1.3 18.2c.7-.7 2.9-21 2.2-21.6-.2-.2-.7 1.3-1 3.4m-3 23a43.6 43.6 0 0 0-1.3 12.3 57 57 0 0 0 2.3-14.7c-.2-.2-.7.8-1 2.4M967 498c-33.6 8.6-83.2 23.8-84.5 26-1.5 2.2 31.3.2 46-3 16.3-3.5 29.5-9.2 44.2-18.8 12.4-8.2 11.7-8.7-5.7-4.2m-864.4 12c-1.5 7.7-1.7 9.5-.8 8 1-1.7 2.6-11 1.8-11-.2 0-.7 1.4-1 3m473.7-2c-25.8.6-22.8-4.3-22.4 37.2.2 26.2 0 35-.9 34.6-.6-.2-6-9.7-11.8-21-12.6-24.5-10-23.7-26.8-8.8-16.9 15-15.4 15.1-17.4-.5-2.3-17-2.5-18-4-18.2-.8-.1-3.4 2.1-5.8 5l-11.4 13.4-7 8.3v14.2c.2 15-.5 26.1-3.3 56.3-3.1 33.8-2.4 37.5 16 85.5a624.5 624.5 0 0 1 15.5 44.2c0 1.7-3.2.6-13.3-4.3-16-7.8-16-7.4.7 15.9 15.6 21.5 15.8 22.2 9.3 22.3-6 0-24.4 2.3-25.1 3-.9.8 3 31 4.7 37.4 3.6 13.1 7.8 18.2 20 24 8.2 4 25.8 10.5 28.1 10.5 1.8 0 1.7.3 5.1-19.5 2.8-16.3 4-22 8.2-39.8 4-17 4.5-14.7 4.7 20.8.4 63.8 25.6 90.3 67 70.5 28.5-13.6 31.8-26.7 26.5-105.5l-2-32a1545.4 1545.4 0 0 1-4-81.5c-2.8-110.8-4.5-131.5-13.3-165.4-2-7.7-2-7.6-9.4-7.4l-27.9.8M99.1 524.8c-.7 2.6-3 9.4-5 15.2l-7.6 20.8a53 53 0 0 0-3.3 10.8c.3.2 1.5-2.4 2.7-5.8l3.6-9.8c6.8-17.4 12.5-36 11.2-36-.3 0-1 2.1-1.6 4.8m162.2 15.9c-15.2 5.9-15.5 6.3-9.6 10.3 17.6 11.9 41.4 41.8 56.4 70.9l6.4 12.3 5-.5c7.8-.8 48.5-21.3 48.5-24.4 0-7-28-39.4-44.3-51.1-30.4-21.9-42.4-25.3-62.4-17.5m755.9-1.2C956.9 555 913.4 603.8 884.9 688l-4.2 12.5.7 20.6c1.8 56.4 8.7 84 28.9 115.2 6.2 9.6 4.7 9.2 33.7 9.2 41.6 0 76-8 111.3-25.7 25.8-12.9 41.7-32.2 60.2-73.3 15.9-35 16.4-61.2 2.4-122.5-1.7-7.4-3.4-14.1-3.8-14.9-1.9-3.7-45-13.1-61.6-13.4l-9-.2-11.9 5.7a115 115 0 0 0-58.5 56.5 62.4 62.4 0 0 0-4.1 9.4c0 .6-3.3 8.6-7.4 17.8-19.3 43.4-19.7 47.2-12.2 105.1l2.6 20.3c1.4 10.5 1.2 11.6-2.3 10-1.2-.7-7.4-3.6-13.7-6.6-26.5-12.4-29.5-18-27-49.7 3.6-44.8 6-59.4 12.3-76 19-49 48.2-90.8 74.7-106.6 13.5-8 21.7-10.9 28.8-10l18.2 2.2c11.5 1.3 43.4 6.5 57.8 9.3 2.3.5 4.4.6 4.6.2.3-.5-10-30-10.9-30.9-2.8-2.8-40.5-12.4-53.6-13.7l-10.4-1a54 54 0 0 0-13.3 2m5.3.1c-43.4 9-80 37.7-108.5 84.9-5.7 9.6-7.8 14.2-21.2 46.5l-6 14.4 2.2 1.5c1.3.9 7.7 3.7 14.3 6.4 13.3 5.4 13.3 5.4 15.6-1.8 21-63.4 61.3-111 103.6-122.4 33-9 32-7.8 18.5-20.4-10.8-10-11.8-10.4-18.5-9m-943 40.8a30.9 30.9 0 0 0-2.3 8c.5.5 3.5-7.3 5.3-13.3 1.5-5-.4-1.7-3 5.3m-5.3 15.2c-2.3 6.5-3.8 12-3 11.3 1-.8 5.9-16.2 5.5-16.7a18 18 0 0 0-2.5 5.4m962.6 4.7c-31.8 14.3-47.1 28.3-61.8 56.1-5 9.4-5 9.2.3 17.9 2.3 3.9 5.1 8.8 6.2 11 1.1 2 3.2 5.2 4.8 7l2.7 3.1 1.8-2.3c21.6-28.7 34.6-40.9 59.5-55.7 5.8-3.5 7.7-5.2 7.7-6.8 0-3.5-9.4-34.7-10.5-34.7-.5 0-5.4 2-10.7 4.4m-967.2 9.3c-3 9.8-7.6 27-7.5 28.3 0 1.7 1-.8 3.4-10l3.7-12.8c1.1-3.5 1.8-6.6 1.5-6.8-.3-.3-.8.3-1 1.3m980.6 29.2c-28.2 16.7-59 48.4-63.2 64.6l-2.3 9-2.5 10.5-3.5 16.5c-6.6 30.3-.5 59.9 13.2 64.2 13.7 4.3 57 7.5 55.7 4a495 495 0 0 0-36.9-48.4c-4.8-5.4-2.8-14.2 11.8-50.8 5.8-14.7 19.1-26 72.8-62.7 2.1-1.4-1.3-3-16.5-7.4-19-5.4-18.6-5.5-28.6.5m-963 .3c-.1.3 7.7 7.5 17.4 16 38.5 33.2 45.6 41.4 59.6 68.7l10 19.5-2.7 10.5-4.3 16.5c-2.3 9.4-1.1 8.6-28.3 17.5-29 9.5-28.1 8.7-14.3 13.5 46.6 16.2 63.5 9.2 83.2-34.6 3-6.9 1.9-12.6-10.5-50.1-11.1-33.6-41.2-68.6-64.9-75.4-5.3-1.6-44.3-3.4-45.1-2.1m-26.7 2.2c-.3.7-.8 3.5-1.1 6.2-.6 5.5.7 2.5 1.7-3.9.6-3.8.3-4.8-.6-2.3m-3 14.8c-.4 1.3-.9 6.9-1.1 12.3l-.5 10 1.4-12c1.3-11.6 1.4-15.1.2-10.3m-1.2 43.3c.2 6.6.8 13.1 1.4 14.5.9 2 1 1.7.5-2.3-.4-2.6-1-9-1.4-14.5l-.9-9.7.4 12m34.3 6C82 719 86.8 725 107.5 726l11 .6V741c0 17.3-.4 16.5 8.7 17.3l13.7 1.3 6.3.7-.6-4.4-2-10.4a417 417 0 0 1-3.2-15.7l-1.8-9.7-11-6a411 411 0 0 0-32.3-16c-.5 0-3 3.3-5.5 7.4m991.7-2.4c-30 4-27.2 2.9-37.3 16-17.5 22.8-18.9 35.4-4.3 40 13.6 4.2 21.5-2.5 26.2-22.1l2-8.8c1.3-5.2 2.5-5.3 7.4-.2l3.9 4 .6 24.7.6 24.8 3.2-6.8a127 127 0 0 0 11.2-55.4c0-19.2.8-18.2-13.5-16.2M88.7 747.8c-4.5 5-4.3 10.7.6 14.8 8.8 7.4 19-5.6 11.1-14-2.8-3.2-9.2-3.6-11.7-.8m184.8 110.7c-37.7 3.6-38.7 4-34.7 14.7 9.7 26.4 22.4 60 28.2 74.8 6.5 16.5 14.6 41 21.4 65a2097.7 2097.7 0 0 0 9.6 33.5 931.5 931.5 0 0 0 26.6 83c17.9 45.3 64.9 52 69.9 10 2.8-23.9 6.1-132 5.3-174.6l-.3-17.6-13-12.4c-24.3-23.4-36.8-39.8-48.2-63.5-6.2-13-6.4-13.1-10-13.8-6.3-1-40-.4-54.8 1m623.3 18.1-28.5 26.7c-23.9 22.3-41.7 34.7-58.6 40.6-8 2.8-7.5 2.1-12.1 18-10.4 36-18 121.5-13.6 152l2.5 16.8c3.8 26.7 10.6 34.5 30 34.7 26.1.1 41.5-22.7 58-86l7.5-28.5c9-34 20.5-71 35-112l22.3-63.3c3.7-10.9 4.4-10.3-13.8-11.1l-15-.7-13.7 12.8m-604.7 3c-1.3.9-5.8 3-10 4.8-9.4 3.9-10 .8 7.1 40.5 16 37 16.6 35-6.3 21.1a198 198 0 0 0-18.8-10.6c-.4.5 4.7 15.4 6 17a783.1 783.1 0 0 1 20.3 62.5l3.5 12.5c3 10.3 6.2 21.6 7 25a395.4 395.4 0 0 0 8.1 27.5c3 10.3 12.8 39.8 14.5 43.5.8 1.7 3 6.8 4.8 11.5 4.3 10.4 4.4 10.1 5-13.3.6-23.2-.2-22.3 12-13 8 6.2 8 6.2 9.3-12.3 6.1-85.4 3.9-159.3-5.4-178.2-8.7-18-48.4-44.7-57.1-38.5m122.2 81.5c-4.7 5.9-6.2 33.2-7.3 128.8-.5 46-1.2 86.9-1.6 91-.5 5.5-.4 7.2.5 6.5.8-.8 1.4-24.7 2-82.5 1.2-96.3 2.4-130 4.6-130l5.1 2.6A255 255 0 0 0 487 999l15 2.6a397 397 0 0 0 18 3c30.9 4.7 32.6 5.2 32.3 9.6-2.4 38.9.6 69.8 13.2 133.4a3340 3340 0 0 1 6 31.3l1.7 9.2h33.3l2.6-9.3c1.5-5 6.8-25.6 11.9-45.7 14-55.6 23-87 26.6-92.8 1.5-2.3 35.4-3.6 36.8-1.3 1.3 2 5.7 69.3 8 121.6l1.1 27 11.4.3 11.4.3-.7-3.3c-.3-1.8-1.3-5.8-2.1-8.8-4-14.5-4.7-27.4-4-73 .7-45.9.3-53.9-3.6-72.8-2.6-12.4-3-11.8 10.2-13.9 15.3-2.3 14.1-2.6 16.2 3.7 11 32.7 15 69.4 14.7 134.5v32.3c0 .9 3.2 1.2 12.4 1.2h12.4l.7-10.3c.7-10.9 1.1-106.9.8-168.7v-40.5l.2-3-14.5.3c-33.5.6-85.6 7.5-106.5 14.1-3.3 1-12.5 4.2-20.5 7-37 13.3-39.4 13.6-56.5 7.5-22-7.9-27.5-9.7-40.8-14a456 456 0 0 0-60.2-15c-6-1-52.5-5.4-58.5-5.4-.4 0-1.2.6-1.7 1.3m67 113.5a650.5 650.5 0 0 0-9.4 47.7l-3 16a308 308 0 0 1-10.4 40.5c-3.7 9.6-4.6 9 13 9h15.7l-.7-24.3c-.3-13.3-1-34.5-1.6-47.2a1154 1154 0 0 1-.9-33.7c0-11.3-1-14.2-2.8-8M284 1137.5c0 2.4 2.7 19.8 4.5 29 .8 3.8 2 10.3 2.6 14.3l1.2 7.2h20c15.8 0 19.7-.3 19-1.3-.6-.6-3.6-7.8-6.8-16-7.3-18.8-6.1-18.9-15 1-2.9 6.2-3.1 6-13.4-14-10.9-21-12.1-23.1-12.1-20.2m97.2 35.6c-4.5 2.2-7.3 5.5-9.7 11.3l-1.5 3.6h23.8l.6-3.1c2.4-12.2-2.9-16.9-13.2-11.8m408-1.4c-3.6 1.4-5 8.7-2.8 13.8 1.3 2.8 1.4 2.7.9-2.7-.4-4.3-.2-6.4 1-8.3 4.3-6.4 14.4 1 14.8 10.8.1 2.7.2 2.8.6.7 1.6-8.5-7.2-17.2-14.5-14.3"/>
</svg>
