<svg xmlns="http://www.w3.org/2000/svg" width="1024" height="1024">
  <path fill="#5c5c61" fill-rule="evenodd" d="m628 788-6 7a146 146 0 0 1-30 27 181 181 0 0 1-34 20l2 7 4 11c1 6 2 6 4 1 3-8 18-21 24-19 9 2 18 0 23-4l2-2v1l2 5c2 6 3 6 8 1l4-4 2-7 3-9v-19h4v-3c0-3-7-15-9-15l-3 2m-263 29a104 104 0 0 0-10 21v3l5-3c7-3 14-1 17 5l2 2c4 0 11 4 15 8l4 3 2 8 2 10c0 5 1 5 8-2l18-20c11-13 10-12 2-14l-21-8a175 175 0 0 1-30-19c-8-6-6-7-14 6m328 157c-3 4-3 3 8 6l12 3-11-10c-5-3-6-3-9 1m-463 5c-7 7-13 17-10 17 5 0 18-16 15-19l-2-1-3 3" style="fill:#7b4410;fill-opacity:1"/>
  <path fill="#de7e23" fill-rule="evenodd" d="m487 225-3 6-3 4-3 1-12 15-3 7-4 7 1 2 2 5 1 5 1 2 2 7c2-1 16-21 16-24l2-5 4-11 1-7 1-4v-13l-3 3m-51 221c-16 5-20 6-31 12a173 173 0 0 0-78 93 244 244 0 0 0-11 151l2 8a176 176 0 0 0 136 127c5 2 14 4 29 6l16 1 17-1c25-2 38-5 55-15a195 195 0 0 0 29-21 103 103 0 0 0 23-26l5-7 8-11a142 142 0 0 0 18-38l8-35 2-11v-16l-1-15-3-16a213 213 0 0 0-20-63 193 193 0 0 0-10-21 276 276 0 0 0-22-40 134 134 0 0 0-67-56 19901 19901 0 0 1-19-8 183 183 0 0 0 20 45l7 15c2 3 7 24 9 32l1 9-1 11a102 102 0 0 1-20 50l-6 5c-16 17-46 29-76 29-21 0-34-3-58-14l-15-13-11-10-4-9c-14-25-13-45 4-72 3-6 16-19 29-31a269 269 0 0 0 43-45l2-2h-2l-8 2m146 407c-13 12-16 35-7 43l4 4 1 3-1 2c-2 3-12 8-18 9h-5c0 6 11 24 21 34 11 11 12 13 13 12s2 0 3 2l4 3 1 1c-1 1 3 4 11 7l10 6 3 3v3l-1 4-2 2h2l-2 2-2 2-1 2-1 6 1 3h3l-1 1c-3 4 7 13 14 14l3 1 1-2v-1l2 1 1 1 5-1 7-3c0-1-4-3-7-2v-1l1-2c0-4 2-7 4-8l2-1 3 1 5 5c2 3 8 2 6-2-1-5 5-6 11-3l4 2 5 3 4 2v-3l-2-5c-2-3-4-11-4-13l-3-10-2-7v-5c1-8 4-8 6-1 2 10 9-1 7-11s-4-11-16-15l-6-1-9 3-22 3-1-1c-2 0-14-8-16-10l-2-2h-1c1-1 0-3-2-5-6-9-13-31-15-49a216 216 0 0 0-5-25c1-2-2-4-6-4h-4l-4 3m-215 11a104 104 0 0 0-13 15l-9 10c-16 17-30 26-52 33l-11 3-6-3c-23-11-42-3-42 17v5h5l10 4c0 2-7 12-8 12l-1 1h-1l-1 1 2 1h2l-2 1h-3c1-2-3-1-4 0h1l2 1-1 1 3 3 4 4v6c0 9 3 9 21 6h4l2 3 3 4 5 5 4 3 3-1c3-2 7-7 11-14l2-6v-6l-1-10c-2-6-2-6 10-7l11-2 10-4a113 113 0 0 0 37-24l7-7-5-2c-15-8-16-12-4-20 8-4 18-15 21-21 4-9 5-11 8-12 3-2 0-7-6-11-5-2-6-1-18 11"/>
  <path fill="#fbb411" fill-rule="evenodd" d="m484 214-4 2v6l5-4c7-7 7-9-1-4m-371 95 6 16 5 13 5 29v5h-2c-3 1-17-2-21-5-4-4-4-3-1 1l5 9 4 8 6 10c5 9 14 20 18 25 4 3 6 7 8 12v3h-2l-11-2-12-2-5-1-3-1 4 7c5 11 13 23 19 28 9 8 10 11 1 16l-5 3h-10l-12-2c-3-2-4-2-2 2l4 8 6 9 5 7a299 299 0 0 0 18 23l2 4-1 2c-3 3-7 5-13 7l-6 1-4-1-4-2v2c-1 14 13 37 24 39 6 2 4 4-7 9-6 3-22 6-24 5l-1 5v5h-2l-8-2c-6-3-27-6-29-4-1 1 21 7 26 11l12 9 22 18c4 4 15 11 21 12l12 4 9 3h6l11-1 8-2 7-2 11-4a56 56 0 0 0 17-8 180 180 0 0 0 18-11 175 175 0 0 0 29-23l3-3 5-4a224 224 0 0 0 24-27l9-18a134 134 0 0 1 15-33 142 142 0 0 1 17-26 263 263 0 0 1 34-34l2-2-4-3a268 268 0 0 0-60-30l-21-9c-30-13-59-29-77-43-41-30-39-28-57-46l-12-12-10-1c-11-1-22-5-30-9l-5-3 3 6m741 89a523 523 0 0 1-65 26 427 427 0 0 1-110 18l-65 7c-8 2-27 7-33 10l-5 3 6 4c12 10 26 27 36 44a624 624 0 0 1 38 79 230 230 0 0 0 28 50 684 684 0 0 0 45 55l6 5c24 23 95 41 121 31l5-1-2-2c-16-10-17-20-4-25l4-1 7-10a12861 12861 0 0 1 13-17l-14-1h-13l-5-2c-9-5-10-17-2-30l2-6v-4h-10l-6-3c-6-3-13-11-16-18l-3-6-2-10v-9l2-5c2-6 8-15 14-21 5-4 4-5-1-5-15-3-18-9-9-24 7-10 8-12 27-28 14-12 14-11 1-12h-10l-11-2c-31-8-33-15-8-24l5-2 9-9c10-10 16-19 22-30a1071 1071 0 0 1 13-28c0-2-1-1-11 3M667 631l2 12 1 7v41l-2 9a273 273 0 0 1-9 31l18-24 7-11c13-20 13-26 0-43a305 305 0 0 1-16-24l-2-3 1 5"/>
  <path fill="#cf4140" fill-rule="evenodd" d="M99 128a330 330 0 0 0-17 38l-7 15c-8 21-16 32-25 32h-3l-4-4c-3-3-6-10-6-14 0-8-5 6-9 21l-1 23v16l2 9 12 25c4 3 12 22 12 28 1 16-16 26-38 22l-4-1 2 4a292 292 0 0 0 59 67l2 3-2 2-7 4-4 2-12 1H37l-7-2-9-3h-3l7 8a88 88 0 0 0 13 12 317 317 0 0 0 15 14l2 3v12l-3 3c-6 5-14 8-25 9h-9l3 2c10 5 25 10 42 12l15 3c2 2 4 7 4 11l-1 3-5 2-7 3-8 2-13 4-6 1 14 5c16 5 25 10 29 14l2 2-1 2-2 2-2 1-4-2-6-4-1-2v6l-2 1-2 1 4 1c5 2 13 6 20 13l6 6 2 5 4 11c2 6 10 8 22 4l3-1-1-1c-4-3-11-13-15-21l-5-9v-6l3-19c2-2 5-1 10 2 5 2 10 3 11 1 1-1-2-6-11-18-10-13-17-24-20-33l-6-10-2-5 1-2 2-1 6 2c10 8 21 11 25 9l2-1v-3l-1-4-4-6-4-6-5-9a140 140 0 0 1-13-26c-4-9-2-9 14-1l14 6h2l-10-15a371 371 0 0 1-30-49c-3-4-3-7 1-10 3-3 3-3 8 4 6 6 11 10 16 10l5 2-1-15-2-10c-3-11-8-23-14-34l-7-16-1-5 1-2c2-2 3-1 9 5 10 9 24 17 35 19l7 1c3 2 2-1-12-16a142 142 0 0 1-20-32c-2-2-4-8-9-22a283 283 0 0 1-5-111c2-8 1-8-3 0m351 145c-6 6-17 12-21 14-5 1-5 1-2 5l6 21c3 10 19 15 31 8l7-3 3-5 2-5-1-3-6-7-5-3-1-5-5-13-4-8-4 4m456 67-5 9-5 7c-3 1-30 48-30 53a182 182 0 0 1-19 35c0 5-26 26-36 29-7 2 8 8 26 10l9 1 6-1h11c1 6-3 15-5 15l-4 3-11 10c-16 13-27 30-21 31 16 5 20 15 9 23-8 6-14 17-14 27v5l3 7 3 7c0 2 13 13 16 14l4 1 7-1 12-3 14-1h8l21 2c1 0-3-4-9-6l-14-5c-8-2-8 0-12-2l-6-5-6-6-1-4c-1-6 1-10 5-15l5-4 12-2 18-3h6l4 2 4 2 8-2 12-3 4-2h-2l-9-2c-10-2-27-10-27-14l-3-8c-7-15-1-24 30-36 9-4 15-9 28-21l5-6-12 1-10 1-12-2c-15-2-20-5-20-12 0-5 5-9 12-10l13-6 13-4 2-1h-4c-15 2-29-9-32-23l-1-4 2-4 2-5c0-2 8-15 12-19l4-7 3-3 4-7-3 2c-19 14-31 9-27-11 6-23 7-32 3-27"/>
  <path fill="#fe0" fill-rule="evenodd" d="M401 194c-16 4-27 19-30 41-2 8-5 17-8 21-4 4-15 11-17 11-3 0-2 2 0 3l3 1c1 2 15 8 23 11 17 6 35 6 47 1l4-2 23-13 17-27c0-3 2-5 4-5l10-9 2-3 1-4-1-3-4 3-8 2h-3l1 1 2 1-2 2c-2 3-3 2-10-4-13-13-23-20-33-25l-6-3h-15m-11 50c-9 4-6 22 4 23h5l2-2c8-9-1-27-11-21"/>
  <path fill="#4e4117" fill-rule="evenodd" d="M487 2a87 87 0 0 0-44 31l-2 2-10-4-10-3-7-1h-8l-13 4a103 103 0 0 0-31 14c-2 0-15 13-17 18l-2 4h-3c-3 0-20 4-27 7-24 9-41 31-47 61l-1 8 1 7 3 12c2 6 2 6-4 1l-9-6-5-2h-15l-5 2c-17 8-29 37-24 57l2 9 8 20c1 2 4 7 7 9l7 12 5 8 3 9a202 202 0 0 0 15 33 420 420 0 0 0 55 101 529 529 0 0 1-121-76l-10-9-16-16a1438 1438 0 0 0-28-34l-9-13a162 162 0 0 1-18-53l-4-21-1-14v-17c1-20 6-48 10-56l1-2-1-2c-3-3-4-2-14 16a208 208 0 0 1-8 16l-3 6-17 39c-15 35-28 35-29 0l-1-8h-4l-4 12a143 143 0 0 0-10 68l1 16 4 8 10 18 10 20 1 4-1 5c-5 16-28 16-44 1l-3-2v10l3 5 4 7a253 253 0 0 1 12 18 3513 3513 0 0 1 23 27c27 27 27 26 7 26H38l-8-2a170 170 0 0 1-30-10 81 81 0 0 0 13 20c5 6 15 16 25 23 8 7 11 10 11 13l1 3-2 2c-4 6-21 10-33 9l-9-1-6-1v2c0 4 16 14 29 17a1229 1229 0 0 1 34 8c17 3 17 3-5 11l-26 6c-14 2-10 8 8 14a784 784 0 0 1 32 12l6 4 4 2 2-1 2-2 1-2-2-2c-4-4-13-9-29-14l-14-5 6-1a154 154 0 0 0 28-9l5-2 1-3c0-4-2-9-4-11l-15-3c-17-2-32-7-42-12l-3-2h9c11-1 19-4 25-9l3-3v-12l-2-3-7-7a317 317 0 0 1-21-19l-7-8h3l9 3 7 2h12l12-1 4-2 7-4 2-2-2-3-2-2-26-26c-12-13-26-31-31-39l-2-4 4 1c22 4 39-6 38-22 0-6-8-25-12-28l-12-25-2-9v-16l1-23c4-15 9-29 9-21 0 4 3 11 6 14l4 4h3c9 0 17-11 25-32a263 263 0 0 1 12-26c1-6 15-34 16-34l-1 7c-3 11-3 12-4 26-2 26 3 67 9 85a96 96 0 0 0 12 28l17 25c14 16 15 19 12 17l-7-1c-11-2-25-10-35-19-6-6-7-7-9-5l-1 2 1 5 7 16a135 135 0 0 1 16 44l1 15-5-2c-5 0-10-4-16-10-5-7-5-7-8-4-4 3-4 6-1 10l5 8 7 11 6 10 12 19 10 15-2 1-14-6c-16-8-18-8-14 1l5 10 8 16 5 9 4 6 4 6 1 4v3l-2 1c-4 2-15-1-25-9l-6-2-2 1-1 2 2 5 6 10c3 9 10 20 20 33 9 12 12 17 11 18-1 2-6 1-11-2-5-2-8-3-10-1l-3 19v6l5 9c4 8 11 18 15 21l1 1-3 1c-12 4-20 2-22-5l-4-10-2-5-6-6c-7-7-15-11-20-13l-4-1 2-1 2-3v-3h-2l-26 9-4 2 1 1c1 3 4 3 16 3l11 1 7 2 7 3 6 5 6 6 1 4 3 9 2 8v2h-2l-8-1c-23-4-50 4-58 18-2 5-1 5 4 1l4-5 6-2 5-1h8a66 66 0 0 1 37 16 43537 43537 0 0 0 23 18c13 12 30 20 49 23l8 2 10-1a126 126 0 0 0 56-22l14-9a181 181 0 0 1 13-9l8-7a350 350 0 0 0 34-33h1l-1 2-4 17-2 15-1 25v25l1 8a307 307 0 0 1 6 28c0 5 2 14 5 21a435 435 0 0 1 9 20l6 11a108 108 0 0 0 16 22c0 2 5 9 10 14l5 5-7 3c-10 5-18 15-20 26v4l5-5 9-10c4-4 12-8 14-8l-5 10-9 15-2 5v9l-1 9 3 1c2 0 9-3 13-7 3-2 6-4 8-3 4 2 1 6-12 21l-9 11c-9 15-41 38-52 38l-7 3-5 2-6-2c-16-7-22-7-34-3-11 4-16 12-16 27v5l-10 3-10 3-6 6c-12 11-13 21-2 14 2-2 7-3 10-4l15-4h2v5l-1 6-2 3c-8 9-10 16-9 24v6h2l8-6 9-8 3-3 2 1 11 2c12 1 12 1 9 5l-3 4-3 4-10 16 6 1h7l2-2 3-2 7-6c7-7 9-8 12-8 3 2 7-1 15-10 2-1 4-5 5-10l2-7v-17h5c14 0 45-16 62-32 8-7 15-11 23-12l4-1-2-2-1-2h-5c-6 0-13-2-20-5-4-1-5-3-2-3l4-1 1-1 3 2c2 1 4 2 5 1l2 1c0 1 1 2 3 2l9 3c5 3 6 3 6 0 0-2-2-4-6-6-13-7-15-10-10-17l8-11c4-6 5-6 5 0 0 11 11 10 21-3a908 908 0 0 1 25-30l2-3h3l7 1c5 2 29 6 44 7h11l14-2 20-2h6v1c0 12 8 44 12 47l5 8h-4l-5-3-4-2-5 1c-7 2-5 21 2 23 2 1 4 4 9 13a62 62 0 0 0 9 13c8 10 11 13 15 15l7 6 2 2 4 2 10 7 9 4 1 2-2 3-3 4-1 6v10l1 5 5 6 5 5h38l-1-1c0-3 2-7 4-7 3 0 7-3 9-5l2-2 6 3c4 1 8 4 10 6 8 8 16 5 16-5v-6l-4-4c-4-5-10-15-9-16 2-1 21 4 29 8l10 5h2l-1-2-3-7-3-6c0-2-11-11-20-15l-9-5v-7l-1-7-2-5-3-4-5-3c-4-2-9-4-13-4l-8-1-4 2-10 3-6 2-2-1-5-1-10-7c-6-6-9-9-12-18a10055 10055 0 0 1-7-21l-1-8-2-14c-1-11-3-19-6-24-2-3-2-3 7-3l7-1 3 6 4 7 4-4 7-6 4-5 3-10 5-12 1-6 1 1 9 2 8 1h8c15-2 27-8 33-19 5-7 5-7 11-3 22 14 45 10 55-8 2-6 3-6 7-4 6 3 20 5 31 6h10l7-2 9-4 7-3 8-4 7-6c3-2 5-6 8-12l4-8v-10l3-4 2-4 11-1c15-3 27-9 27-15l1-1 4-9 6-23 1-3 6-1c20-2 26-10 32-40 1-7 0-25-2-35-2-12-2-12 1-10l9 3 6 1 4-2c9-3 13-5 21-17 7-11 13-30 14-45a4358 4358 0 0 1 0-26l-2-12-2-6-3-9-2-4 3-1c13-9 16-60 4-72l-1-3-3-6c-9-13-10-20-3-25l4-5 2-3 2 1c5 4 5 1 1-12l-4-15c-7-26-33-67-50-79l-4-3-1-3c-1-4 1-17 4-24l2-16v-12l-2-9c-11-46-58-80-91-67-6 3-6 3-6-4l-5-19-4-12-4-5-5-9-5-6-22-18a188 188 0 0 0-45-14l-24-1h-19l-10 2c-6 1-10 3-12 5-4 3-5 3-5-3 0-11-5-25-14-34l-4-5h-8l5 5c18 19 21 47 6 56l-3 2 1 1 2 1-2 1-1 1 2 1h2l-1 3-5 14c-6 17-6 17-8 13-4-10-15-16-31-19l-10-1h-16a101 101 0 0 0-49 12l-9 3-10 5h-2v-5l2-14v-8h-1c-3 0-4 1-4 5l-1 4-3-1h-39l-9 2a196 196 0 0 0-45 18c-2 0-8-28-8-36a43 43 0 0 1 8-23l8-11 5-7 10-6a148 148 0 0 1 30-14l3-2h-5l-11 2m50 1 7 8 3 5v18l-1 24-1 7h2l2 1 1-2c0-3 7-17 13-29l3-7 11-11c7-7 13-12 16-13l6-3 3-1h-14l-4 3c-11 8-25 26-28 35-2 7-3 5-3-7 0-13-1-16-6-24l-4-6-5-1h-5l4 3M398 35c-6 1-14 4-21 8l-11 5-8 8-8 8-2 7-2 9 1 2h4l6 1h2l-3 5-3 4-2-1c-2-2-2 11 1 14l3 6 1 4 7-4c7-5 13-8 23-11l6-1h24l24-1-1-5-2-15c-3-12-3-21 0-30l2-7-2-2c-9-6-24-8-39-4m328 6c-11 2-19 6-23 11a866 866 0 0 1-11 18l-6 19-5 16v6c1 11 0 14-2 19-4 7-3 7 4 4 10-3 25-7 30-7a149 149 0 0 1 63 20 109 109 0 0 1 26 32c3 5 8 20 8 23 0 4 1 4 5-2a1825 1825 0 0 1 35-58l4-6 2-4v-11c-1-14-2-19-9-31-6-11-7-13-15-22-10-10-26-18-53-25l-13-4h-31l-9 2M331 74l-5 2-9 2c-8 2-16 7-18 10l-6 6c-7 4-17 22-20 36l-2 7v10l1 9 3 8c5 9 12 18 18 23l5 3 1-2 1-5 2-7 1-5 16-15 24-23 8-8v-6l-1-7-3-5c-4-7-7-18-7-27v-7h-3l-6 1m107 50-12 4c-8 2-23 9-24 11l-8 7-7 6-4 6c-14 15-19 28-9 23l8-3 1-1-1-2h3l13-2h2v2c0 2-4 4-9 5l-26 12-1 6c-2 17-15 41-30 57l-4 5 2 2 4 3 2 1 7-4c11-7 16-13 18-27l3-14c2-8 2-10 7-14l7-8c2-2 5-6 8-7l4-3 2 1h2v-1l3-1c6-2 12-1 23 3l11 3 6 6c21 19 20 19 45 7 11-6 21-10 21-9 2 1 1 4-2 7-4 5-6 10-6 19-1 11-4 24-6 27l-2 6c0 6-10 24-17 31l-3 3 2 2 4 2c6 5 7 19 2 25l-2 2 2 4 1 5v21l-1 22-3 12a214 214 0 0 1-30 72c-5 7-25 27-34 34-29 22-42 42-45 67l-1 8 3 10c11 30 34 49 64 54l11 2c13 3 45-2 61-9 15-7 36-26 39-36l3-7 7-21c2-7 2-15 0-21l-1-7c0-6-11-35-17-44a220 220 0 0 1-27-119v-33l2-13a470 470 0 0 1 14-60l9-34 2-10v-14l-1-15-3-7a112 112 0 0 0-66-56l-12-4h-5l-9 1m435 4c-5 1-13 6-13 7l-4 7a528 528 0 0 0-18 31l-9 14-4 6 1 1 9 5c25 13 45 34 52 56 1 5 1 5 5 1 4-5 16-11 23-11a157 157 0 0 0 32-16l2-1 1 2 2 6 1 3 1-6c11-37-10-82-45-99-17-8-27-10-36-6m-293 29-8 2c-16 5-30 13-33 20l-2 3 2 7c2 15-1 42-10 67l-3 12-1 8c-2 6-2 6 2 2l12-9 9-5 9-3 20-3h10l4 1 12 3 8 1 12 6 14 6 6 4 6 4c1 0 15 15 23 26l6 9 7 3a94 94 0 0 1 27 19c13 11 17 16 21 23l6 9c5 8 2 32-6 49l-4 8v2l4-1a450 450 0 0 0 115-36c4-1 4-2-1-8-4-4-9-16-9-20l-1-8-4-18c-8-32-21-51-48-67-11-6-19-13-25-19l-12-18c-7-18-25-27-56-29-17 0-20-1-34-8l-11-5-7-7-9-11c-8-12-37-24-51-19m-346 4-9 7-6 6-3 8-4 17-1 9 2 8 3 13c3 9 7 15 11 17l4 6 4 7 5 9 2 5 3-7c7-25 23-43 40-50l3-1v-5c-1-5-10-25-12-25l-3 1-2 1 2-3 1-3-3-5c-11-14-25-20-37-15m199 6c-3 2-8 9-8 11l4 2 5 2-1-4v-3l3-2 2-1h8c8 0 16 2 26 6l5 1 1-1 1-1-2-2-10-5-8-3-12-1h-12l-2 1m-148 21a320 320 0 0 1 8 17c3 8 7 6 6-4v-5l-5-3-5-3s-1-2-3-2l-2-2 1 2m115 5c-15 3-25 18-30 42-2 9-6 18-8 21l-16 10c-4 1-3 3 4 7 23 13 44 18 61 13 13-4 26-10 33-15 4-3 20-28 20-31v-2h2c2 0 3-1 4-3l4-4 3-3 7-9c9-8 9-11 1-6a10252 10252 0 0 0-19 8l-4 1s3 1 2 3l-1 1-6-3-6-6c-1-2-8-8-17-14-12-9-24-12-34-10m87 31c-6 10-19 20-24 30l-3 7-2 3 3 11c4 15 4 14 11 5 4-5 11-16 11-18l3-7c6-16 7-38 1-31m454 15-7 5c-3 2-14 6-18 6a44 44 0 0 0-24 13l-3 4-2 7c-5 15 4 33 19 38l3 1 4-2c5-3 13-11 17-17 2-4 5-6 5-5 1 1-1 7-7 17l-7 13c-4 13-6 24-7 32l-3 16-2 9 1 2 2 1c7 1 23-11 29-22 9-13 34-8 50 9 5 5 6 5 9 1l8-9c5-1-13-51-22-61l-5-8a136 136 0 0 0-29-31l-4-4 1-9v-9h-1l-7 3m-550 5c-4 2-5 6-5 13l1 6 2 2c5 3 11 1 14-5l1-3-1-4c-1-4-6-10-8-10l-4 1m-68 24-6 8-7 10-13 18a162 162 0 0 0-20 36l-3 4 3 6a1896 1896 0 0 1 20 37l4 7 3 3c0 2 7 12 11 16 5 5 7 7 15 10 6 3 6 3 6-4a93 93 0 0 1 16-52l10-13a207 207 0 0 1 24-20l17-10c6-4 25-4 25-7 1-6 4-22-10-25-3-1-14 4-41-2a160 160 0 0 1-41-19c-9-8-9-8-13-3m240-2-10 3-6 2-2 1-3 3a122 122 0 0 0-17 13l-3 3-1 6-2 10-2 11a390 390 0 0 0-5 67v15l2 10a625 625 0 0 0 4 22l1 4 4 1 13 5a183 183 0 0 0 25 12c6 3 7 3 16-1 10-5 33-11 51-13l89-7c3 0 12-15 17-29l2-8v-16l-2-6c-6-11-9-15-28-31a85 85 0 0 0-28-19l-5-2-1-3c-8-19-48-50-65-50l-7-2c-5-1-29-2-37-1m-111 5a81 81 0 0 1-27 18l2 2 6 22c3 10 19 15 31 8l7-4 3-4 2-5-1-3-6-7-6-5a567 567 0 0 0-8-24l-3 2m-344 30c2 4 9 17 11 24a191 191 0 0 1 9 42v4l-1 1c-3 1-15-3-21-7s-7-4-3 2c2 2 5 7 6 11l5 9 3 4c0 2 15 24 19 28 5 4 7 8 8 13l1 3h-2a175 175 0 0 0-27-7c-5-2-1 10 5 19 2 1 3 4 4 6l10 11 8 9v3l-5 3-5 3h-9c-8 0-13-1-17-5-3-2-2-1 1 6 3 8 6 13 9 17l5 6 9 12 9 12 2 4-2 2c-4 5-15 8-21 6-5-2-5-2-5 5 0 12 15 34 25 36 5 2 5 2-8 8l-15 4-10 1v9h-2l-28-5c-7 0-8 1-1 2 4 0 17 8 21 12l10 7c7 5 19 14 22 18 4 5 12 9 21 12l13 4c12 5 17 4 47-5a213 213 0 0 0 72-47 195 195 0 0 0 29-32c4-5 5-7 10-20 12-34 41-74 65-89 6-4-16-18-46-29a306 306 0 0 1-42-19 379 379 0 0 1-78-44c-9-5-36-26-52-43l-12-12-10-1c-13-1-33-8-36-13l-1-1v1m321 23-3 1c-15 4-29 8-33 11-5 2-4 2-8 6l-15 13a74 74 0 0 0-23 35c-3 7-6 21-6 30v7l6 2a225 225 0 0 1 40 22l6 4 10-4c14-7 23-10 34-12 15-2 23-16 32-56 4-16 5-53 2-56l-1-1-4 2c-9 5-22 4-30-3-6-4-5-3-7-2m477 17-5 9-5 7c-3 0-23 37-33 60a160 160 0 0 1-16 27c-6 10-26 27-37 30-5 2-4 2 7 6 18 6 27 6 37 4l7-1 2 1v9l-9 9-14 12c-7 5-16 17-19 22l-1 5 1 1 6 3c3 1 6 2 7 4l2 2v11l-3 2c-4 4-10 10-13 15l-2 4-1 8v8l3 7c4 9 12 17 18 20l3 1 7-1 11-2c6-2 12-2 19-2h6s21 3 22 2c2-2-21-12-33-13-4 0-6-3-9-5l-5-6-1-4c-1-6 0-11 5-15l3-3 8-2c20-5 29-5 34-1l3 2 11-3c13-4 14-5 3-7-12-2-28-10-28-15l-3-7c-6-14 3-27 22-33 13-4 20-9 37-24l8-8-6 2c-17 4-47-1-51-8-3-7 0-10 13-15l14-6 10-3 2-1h-4c-26 3-39-21-24-44l3-7 3-3 5-7 3-4 4-7-3 2c-19 14-31 9-27-11 6-23 7-32 3-27m46 16c-1 5-3 9-6 11l-4 8-20 30c-2 1-4 5-6 9l-2 6v10l4 4 4 4 5 2c8 2 16 1 24-1 17-5 21-2 8 6a419 419 0 0 0-24 13l-13 5-10 5-1 2v2l2 1 30 4c5 0 13-3 14-6 0-2 6-5 10-5l7-2c9-4 13-2 8 4-4 5-4 5 10 5h11l2-2c8-7 11-23 9-39-3-19-7-30-12-36-3-3-8-14-9-22-2-6-26-20-35-20h-5l-1 2m-93 39-14 6-16 8a472 472 0 0 1-181 36h-9a1282 1282 0 0 1-32 5c-5 0-20 5-27 9l-5 2 4 3c20 16 45 51 61 89a646 646 0 0 0 18 43 273 273 0 0 0 50 76c11 15 32 34 48 42 28 14 83 25 97 19l6-3 3-1-2-2c-16-11-18-20-4-24l3-1 8-10 10-14c4-5 4-5-10-5l-12 1-6-3-6-3-2-4-1-4 1-6c0-4 2-8 4-11s3-6 2-8v-4l-6-1-6-1-5-2c-6-4-13-13-15-18l-2-6-1-11v-11l2-6c2-3 6-9 10-12 8-8 8-8 1-10-21-5-17-20 15-47l16-16h-18l-13-3c-29-7-33-13-15-20l13-7a137 137 0 0 0 41-63c3-5 2-6-5-2m-339 46c0 2 7 21 12 30 17 32 17 34 23 55l3 12v21l-2 8c-9 34-28 54-63 66-10 4-10 4-27 6l-14 1-12-1c-65-9-101-68-70-114l3-5c0-1 25-26 35-34a245 245 0 0 0 37-40c2-1 1-2-1-2a152 152 0 0 0-58 25 293 293 0 0 0-43 47c-4 5-11 19-13 26l-4 10-2 6-1 1-1 4-1 3-9 30-1 5-3 25a234 234 0 0 0 14 96 255 255 0 0 0 32 56c14 21 66 55 84 55l13 4a167 167 0 0 0 123-10 183 183 0 0 0 54-52c15-22 18-27 24-44 5-12 8-27 11-43l2-13v-14a162 162 0 0 0-6-36 202 202 0 0 0-18-56l-6-11-8-18c-15-32-40-64-59-76l-37-17-8-2-2-3-1-1m442 46c-15 15-26 23-43 29l-10 5-6 4-5 4v4l-1 3 3 8 3 7 7 3 16 6 9 2h6c8-1 15-4 17-6 1-3 4-3 5 0 1 8-12 17-32 21-10 1-16 4-21 7-3 3-5 3-6 0l1-4c5-3-3-3-24 0l-11 1-3 3-3 6-1 4 1 3 5 4 4 2c0 2 4 1 8-1 7-6 17-6 13-1l-2 3 1 1 7 4 9 8 10 9 3 4 5 6 3 5h-2c-2-2-18-9-29-12l-7-2h-10c-14 1-20 4-20 10 0 1-1 3-3 3l-3 2h-4c-4 0-3 2 1 2l11 5 8 4c17 3 30 9 30 15 0 3-3 8-4 7l-1 1-1 3-14 8-7 4-6 8-7 8-3 1-5 3-1 1 1 2 4 4 6 5 4 2h8l14-1 7-1 3-3c5-4 12-18 14-29l3-12 2-3 1-2h7c26-2 38-39 26-82l-1-5 1-1 1-2 6 4 6 3h12l5-2 8-7 4-5a101 101 0 0 0 14-45c2-15-1-38-6-46l-3-5h-4l-15-1-11-1-8 8M664 624l2 6 2 15 1 26v20l-2 11-6 21c-5 14-5 14 2 5 14-19 28-42 32-53l1-4-2-4a33187 33187 0 0 1-9-14l-18-28c-1-3-4-4-3-1m185 26c-2 2-3 7-2 11l1 3 4 2c5 2 14 3 22 1 6-1 6-1 6-4l1-2-13-5-14-5c-3-2-3-2-5-1m35 17-1 2 1 1 1 2-1 3-3 6-1 2 7-5c9-6 10-7 6-10-5-3-7-3-9-1m-190 22a231 231 0 0 1-33 51l-15 20c-13 15-13 18-3 30l2 2v7l1 7 1 2c10 7 37 4 47-5 3-3 11-15 11-17s6-1 10 3c22 18 53 7 55-19l1-7 12 9 4 5 5 5 5 1c25 4 54-9 63-27l2-6v-6c0-8 0-9-6-7-13 3-35 2-56-3l-17-4a136 136 0 0 1-39-17c-9-4-27-21-37-33-5-6-5-5-13 9m-66 99-6 7a146 146 0 0 1-30 27 181 181 0 0 1-34 20l2 7 4 11c1 6 2 6 4 1 3-8 18-21 24-19 9 2 18 0 23-4l2-2v1l2 5c2 6 3 6 8 1l4-4 2-7 3-9v-19h4v-3c0-3-7-15-9-15l-3 2m-263 29a104 104 0 0 0-10 21v3l5-3c7-3 14-1 17 5l2 2c4 0 11 4 15 8l4 3 2 8 2 10c0 5 1 5 8-2l18-20c11-13 10-12 2-14l-21-8a175 175 0 0 1-30-19c-8-6-6-7-14 6m219 34c-10 6-16 21-15 34l1 5 5 6 4 7c0 4-12 10-19 10h-5a124 124 0 0 0 42 54l18 9c1 0 6 5 6 8 1 1 0 3-2 6-12 18 4 38 26 30 7-3 8-4 2-6l-3-2 2-4 2-4h2l7 3c5 6 11 5 9-1v-3h2c1-1 4 0 6 1l6 2 4 2c6 5 8 2 4-5-4-8-10-32-9-38l1-3 1 1 2 5c1 5 2 5 4 3 11-10 5-26-11-30l-9-2-2 1c-32 17-59-9-64-63l-2-16-1-6-3-3c-4-4-6-4-11-1m-213 9-15 15c-6 8-30 33-32 33l-9 4c-18 10-32 13-41 9l-6-3-8-1c-10 0-15 1-21 6l-4 4-1 5-1 9 1 4h4c9 0 11 2 8 8l-2 5-5 2-6 3c-3 0-2 2 2 5 5 3 6 5 6 12v5l2 1c3 2 8 2 17 1l6-2 3 4c1 2 3 5 5 5l4 4c4 8 18-8 20-23v-7l-1-5c-2-6-3-6 8-7 10-1 20-4 28-8l11-6c9-5 29-22 27-23l-6-3c-13-7-14-11-1-19 7-4 17-16 20-22 4-9 5-9 7-10 4-2 1-8-6-12-4-3-4-3-14 7m-141 93-21 9 10-3a139 139 0 0 1 21-7c0-1-1-1-10 1m463 21c-3 4-3 3 8 6l12 3-11-10c-5-3-6-3-9 1m-463 5c-7 7-13 17-10 17 5 0 18-16 15-19l-2-1-3 3" style="fill:#5c5c61;fill-opacity:1"/>
  <path d="m563 266-10 3-6 2-2 1-3 3a122 122 0 0 0-16 13l-4 3-1 5-2 11-2 11a390 390 0 0 0-5 67v15l2 10a625 625 0 0 0 5 22v3l4 2c3 0 8 3 13 5a183 183 0 0 0 25 11c6 3 8 3 16 0 10-5 33-11 51-13l89-7c4 0 12-15 17-29l2-9v-16l-2-5c-5-11-9-15-28-32a85 85 0 0 0-28-18l-5-2-1-4c-8-19-48-49-65-49l-7-2c-5-2-28-3-37-1m-134 57-2 2c-12 3-25 6-34 10l-8 7-15 13a74 74 0 0 0-23 34c-3 8-6 21-6 31v7l7 2a225 225 0 0 1 39 21l6 5 11-5c14-6 22-9 33-11 15-3 23-16 32-56 4-16 5-53 3-56l-2-1-3 2c-9 4-23 3-31-3-6-4-5-4-7-2" style="fill:#7b4410;fill-rule:evenodd;stroke:none;fill-opacity:1"/>
</svg>
